<svg xmlns="http://www.w3.org/2000/svg" viewBox="0 0 1024 1024" role="img" aria-label="SpikeDate app icon"><defs><linearGradient id="g" x1="250" y1="220" x2="780" y2="820" gradientUnits="userSpaceOnUse"><stop stop-color="#FF1744"/><stop offset="1" stop-color="#FF8A18"/></linearGradient></defs><rect width="1024" height="1024" rx="224" fill="#0B0C12"/><path d="M512 837C466 794 226 620 226 396c0-124 91-199 194-169 45 13 75 44 92 82 17-38 47-69 92-82 103-30 194 45 194 169 0 224-240 398-286 441Z" fill="none" stroke="url(#g)" stroke-width="82" stroke-linecap="round" stroke-linejoin="round"/><path d="M560 175C548 269 462 314 500 399c34 75 151 68 190 142 48 93-67 192-178 296" fill="none" stroke="url(#g)" stroke-width="86" stroke-linecap="butt" stroke-linejoin="round"/><path d="m560 105 49 151-99-24Z" fill="url(#g)"/></svg>
